
<svg width="182" height="55" viewBox="0 0 182 55" fill="none" xmlns="http://www.w3.org/2000/svg">
<g filter="url(#filter0_i)">
<path d="M16.7566 38.2039V21.4852C16.7566 19.2352 17.4597 17.3862 18.866 15.9383C20.3451 14.4279 22.2722 13.6727 24.6472 13.6727C26.9806 13.6727 28.9076 14.4279 30.4285 15.9383C31.8347 17.3342 32.5378 19.1831 32.5378 21.4852V36.7977L29.5691 38.2039H29.4128V27.2039H19.8816V36.7977L16.9128 38.2039H16.7566ZM19.8816 24.3602H29.4128V21.4852C29.4128 20.0894 29.0378 18.9592 28.2878 18.0946C27.3608 17.0217 26.1472 16.4852 24.6472 16.4852C23.1472 16.4852 21.9337 17.0217 21.0066 18.0946C20.2566 18.9592 19.8816 20.0894 19.8816 21.4852V24.3602ZM37.5378 32.0633L40.5066 30.6571H40.6628V31.9071C40.6628 33.0737 41.0014 33.9592 41.6785 34.5633C42.3243 35.1362 43.1056 35.4227 44.0222 35.4227C45.0847 35.4227 45.9128 35.0842 46.5066 34.4071C47.1316 33.6987 47.4441 32.9279 47.4441 32.0946C47.4441 31.1987 47.1108 30.4904 46.4441 29.9696C45.8712 29.5217 45.0587 29.2977 44.0066 29.2977C42.1524 29.2977 40.6889 28.8914 39.616 28.0789C38.6681 27.3706 38.1941 26.2717 38.1941 24.7821C38.1941 23.3342 38.8556 22.1362 40.1785 21.1883C41.2097 20.4487 42.491 20.0789 44.0222 20.0789C45.491 20.0789 46.767 20.5373 47.8503 21.4539C48.6837 22.1727 49.1993 23.006 49.3972 23.9539L46.4285 25.3602H46.2722V24.9071C46.2722 24.3654 46.116 23.9019 45.8035 23.5164C45.3035 22.8706 44.5899 22.5477 43.6628 22.5477C42.9233 22.5477 42.3191 22.7821 41.8503 23.2508C41.392 23.7092 41.1628 24.2196 41.1628 24.7821C41.1628 25.4487 41.4441 25.98 42.0066 26.3758C42.3191 26.5946 42.9858 26.7039 44.0066 26.7039C46.1212 26.7039 47.7097 27.1883 48.7722 28.1571C49.9285 29.2092 50.5066 30.5789 50.5066 32.2664C50.5066 33.6206 49.9076 34.9123 48.7097 36.1414C47.5743 37.3081 46.0118 37.8914 44.0222 37.8914C42.2201 37.8914 40.7045 37.3914 39.4753 36.3914C38.1837 35.3394 37.5378 33.8967 37.5378 32.0633ZM56.7878 38.2039V23.2352H52.7722V23.0789L54.0378 20.3914H56.7878V14.7664L59.7566 13.3602H59.9128V20.3914H63.9285V20.5477L62.6628 23.2352H59.9128V36.7977L56.9441 38.2039H56.7878ZM66.6628 38.2039V26.3289C66.6628 24.6102 67.3087 23.1154 68.6003 21.8446C69.8087 20.6675 71.3243 20.0789 73.1472 20.0789H75.2566V20.2352L74.0066 22.8602H73.1472C72.2097 22.8602 71.4128 23.1414 70.7566 23.7039C70.1108 24.256 69.7878 25.131 69.7878 26.3289C69.7878 26.3289 69.7878 29.8185 69.7878 36.7977L66.8191 38.2039H66.6628ZM89.7878 36.7977L86.8191 38.2039H86.6628V36.5633C85.8295 37.4487 84.7097 37.8914 83.3035 37.8914C81.3556 37.8914 79.8399 37.3029 78.7566 36.1258C77.6733 34.9487 77.1316 33.5581 77.1316 31.9539C77.1316 30.2873 77.7201 28.8706 78.8972 27.7039C80.0326 26.5789 81.5014 26.0164 83.3035 26.0164C84.5847 26.0164 85.7045 26.4592 86.6628 27.3446C86.6628 25.5008 86.3399 24.2873 85.6941 23.7039C85.0691 23.1414 84.2722 22.8602 83.3035 22.8602H79.5066V22.7039L80.7566 20.0789H83.3035C85.1264 20.0789 86.642 20.6675 87.8503 21.8446C89.142 23.105 89.7878 24.5998 89.7878 26.3289V36.7977ZM80.1941 31.9539C80.1941 32.881 80.4753 33.6467 81.0378 34.2508C81.5795 34.8342 82.3399 35.1258 83.3191 35.1258C84.3399 35.1258 85.1316 34.8289 85.6941 34.2352C86.3191 33.5685 86.6316 32.8185 86.6316 31.9852C86.6316 31.0477 86.3087 30.2873 85.6628 29.7039C85.017 29.1206 84.241 28.8289 83.3347 28.8289C82.3868 28.8289 81.6264 29.1362 81.0535 29.7508C80.4806 30.3654 80.1941 31.0998 80.1941 31.9539ZM96.5535 38.2039V16.8289H89.866V16.6727L91.1316 13.9852H106.366V14.1414L105.1 16.8289H99.6785V36.7977L96.7097 38.2039H96.5535ZM119.413 19.7664V31.6414C119.413 33.3602 118.767 34.855 117.475 36.1258C116.267 37.3029 114.751 37.8914 112.928 37.8914C111.126 37.8914 109.611 37.3029 108.382 36.1258C107.09 34.8758 106.444 33.381 106.444 31.6414V21.1727L109.413 19.7664H109.569V31.6414C109.569 32.8394 109.892 33.7196 110.538 34.2821C111.194 34.8342 111.991 35.1102 112.928 35.1102C113.866 35.1102 114.658 34.8342 115.303 34.2821C115.96 33.7196 116.288 32.8394 116.288 31.6414V21.1727L119.257 19.7664H119.413ZM126.163 38.2039V23.2352H122.147V23.0789L123.413 20.3914H126.163V14.7664L129.132 13.3602H129.288V20.3914H133.303V20.5477L132.038 23.2352H129.288V36.7977L126.319 38.2039H126.163ZM136.038 31.6414V26.3289C136.038 24.6102 136.684 23.1154 137.975 21.8446C139.184 20.6675 140.699 20.0789 142.522 20.0789C144.324 20.0789 145.84 20.6675 147.069 21.8446C148.361 23.0946 149.007 24.5894 149.007 26.3289V31.6414C149.007 33.3602 148.361 34.855 147.069 36.1258C145.861 37.3029 144.345 37.8914 142.522 37.8914C140.72 37.8914 139.205 37.3029 137.975 36.1258C136.684 34.8758 136.038 33.381 136.038 31.6414ZM139.163 31.6414C139.163 32.8394 139.486 33.7196 140.132 34.2821C140.788 34.8342 141.585 35.1102 142.522 35.1102C143.46 35.1102 144.251 34.8342 144.897 34.2821C145.553 33.7196 145.882 32.8394 145.882 31.6414V26.3289C145.882 25.131 145.553 24.256 144.897 23.7039C144.251 23.1414 143.46 22.8602 142.522 22.8602C141.585 22.8602 140.788 23.1414 140.132 23.7039C139.486 24.256 139.163 25.131 139.163 26.3289V31.6414ZM153.694 38.2039V26.3289C153.694 24.6102 154.34 23.1154 155.632 21.8446C156.84 20.6675 158.356 20.0789 160.178 20.0789H162.288V20.2352L161.038 22.8602H160.178C159.241 22.8602 158.444 23.1414 157.788 23.7039C157.142 24.256 156.819 25.131 156.819 26.3289C156.819 26.3289 156.819 29.8185 156.819 36.7977L153.85 38.2039H153.694Z" fill="black"/>
</g>
<path d="M1 39.5308C236.444 95.9741 186.501 -34.0164 149.401 10.454" stroke="black" stroke-width="2"/>
<path d="M148.921 3.78947L150.487 8.60817L155.553 8.60817L151.454 11.5863L153.02 16.405L148.921 13.4269L144.822 16.405L146.388 11.5863L142.289 8.60817L147.355 8.60817L148.921 3.78947Z" fill="#220000"/>
<defs>
<filter id="filter0_i" x="16.7566" y="13.3602" width="145.531" height="28.8438" filterUnits="userSpaceOnUse" color-interpolation-filters="sRGB">
<feFlood flood-opacity="0" result="BackgroundImageFix"/>
<feBlend mode="normal" in="SourceGraphic" in2="BackgroundImageFix" result="shape"/>
<feColorMatrix in="SourceAlpha" type="matrix" values="0 0 0 0 0 0 0 0 0 0 0 0 0 0 0 0 0 0 127 0" result="hardAlpha"/>
<feOffset dy="4"/>
<feGaussianBlur stdDeviation="2"/>
<feComposite in2="hardAlpha" operator="arithmetic" k2="-1" k3="1"/>
<feColorMatrix type="matrix" values="0 0 0 0 0.0179514 0 0 0 0 0.0828208 0 0 0 0 0.0916667 0 0 0 1 0"/>
<feBlend mode="normal" in2="shape" result="effect1_innerShadow"/>
</filter>
</defs>
</svg>
