<?xml version="1.0" encoding="UTF-8" standalone="no"?>
<!DOCTYPE svg PUBLIC "-//W3C//DTD SVG 1.1//EN" "http://www.w3.org/Graphics/SVG/1.1/DTD/svg11.dtd">
<svg version="1.1" xmlns="http://www.w3.org/2000/svg" xmlns:xlink="http://www.w3.org/1999/xlink" preserveAspectRatio="xMidYMid meet" viewBox="0 0 640 640" width="640" height="640"><defs><path d="M429.86 306.7L429.94 306.78L430.06 306.88L430.25 307.01L430.52 307.14L430.89 307.28L431.36 307.43L431.97 307.58L432.71 307.71L433.62 307.83L434.7 307.94L435.97 308.02L437.45 308.07L439.15 308.09L440.85 308.08L442.33 308.03L443.6 307.96L444.68 307.86L445.59 307.75L446.34 307.63L446.94 307.5L447.42 307.37L447.78 307.23L448.06 307.1L448.25 306.98L448.38 306.88L448.47 306.79L448.52 306.73L448.56 306.69L448.6 306.69L448.66 306.72L448.96 307.05L449.23 307.38L449.49 307.71L449.72 308.04L449.94 308.37L450.14 308.69L450.32 309.01L450.49 309.31L450.64 309.6L450.77 309.88L450.89 310.13L451 310.37L451.09 310.58L451.18 310.77L451.25 310.93L451.31 311.06L451.36 311.16L451.48 311.46L451.58 311.78L451.68 312.09L451.77 312.41L451.85 312.73L451.93 313.06L452 313.39L452.06 313.73L452.12 314.07L452.17 314.41L452.21 314.76L452.25 315.11L452.28 315.46L452.3 315.82L452.32 316.18L452.33 316.55L452.33 316.92L451.42 322.73L451.25 323.18L451.07 323.6L450.89 324L450.7 324.38L450.51 324.73L450.31 325.06L450.12 325.37L449.94 325.65L449.75 325.91L449.58 326.15L449.42 326.37L449.27 326.56L449.13 326.74L449.01 326.89L448.9 327.02L448.82 327.13L448.76 327.22L448.46 327.53L448.14 327.82L447.83 328.09L447.52 328.34L447.21 328.57L446.9 328.78L446.6 328.97L446.32 329.15L446.04 329.31L445.78 329.45L445.54 329.58L445.32 329.69L445.12 329.79L444.94 329.88L444.79 329.96L444.67 330.02L444.58 330.08L444.16 330.25L443.74 330.39L443.32 330.52L442.9 330.63L442.5 330.72L442.1 330.8L441.72 330.86L441.36 330.91L441.01 330.95L440.68 330.98L440.38 331.01L440.1 331.03L439.85 331.04L439.63 331.05L439.44 331.07L439.29 331.08L439.18 331.1L438.66 331.09L438.18 331.06L437.71 331.02L437.27 330.97L436.85 330.9L436.45 330.83L436.08 330.75L435.73 330.67L435.41 330.58L435.11 330.5L434.84 330.41L434.59 330.33L434.37 330.26L434.18 330.2L434.02 330.14L433.88 330.1L433.77 330.08L433.36 329.89L432.97 329.7L432.6 329.5L432.25 329.29L431.93 329.08L431.63 328.88L431.34 328.67L431.08 328.47L430.84 328.28L430.62 328.09L430.42 327.92L430.24 327.76L430.08 327.61L429.94 327.48L429.82 327.37L429.72 327.28L429.64 327.22L429.34 326.89L429.07 326.55L428.81 326.21L428.58 325.87L428.36 325.54L428.16 325.21L427.98 324.89L427.82 324.59L427.67 324.29L427.53 324.02L427.41 323.76L427.3 323.52L427.21 323.31L427.12 323.12L427.05 322.96L426.99 322.83L426.94 322.73L426.78 322.27L426.64 321.8L426.52 321.35L426.41 320.9L426.33 320.46L426.25 320.04L426.19 319.63L426.14 319.24L426.11 318.87L426.08 318.52L426.05 318.2L426.03 317.9L426.02 317.64L426.01 317.4L425.99 317.2L425.98 317.04L425.97 316.92L425.98 316.37L426 315.85L426.04 315.35L426.09 314.88L426.15 314.43L426.22 314.01L426.3 313.61L426.37 313.24L426.46 312.9L426.54 312.58L426.62 312.29L426.69 312.03L426.76 311.8L426.82 311.59L426.87 311.42L426.91 311.27L426.94 311.16L427.12 310.71L427.31 310.29L427.5 309.9L427.7 309.53L427.89 309.18L428.09 308.86L428.28 308.56L428.47 308.28L428.65 308.03L428.82 307.8L428.99 307.59L429.14 307.39L429.28 307.22L429.41 307.07L429.52 306.93L429.61 306.82L429.69 306.72L429.74 306.65L429.77 306.63L429.81 306.65L429.86 306.7ZM437.51 309.66L436.86 309.96L436.34 310.31L435.91 310.68L435.58 311.01L435.33 311.26L435.15 311.41L434.68 312.2L434.34 313.03L434.1 313.88L433.95 314.7L433.86 315.46L433.8 316.11L433.76 316.61L433.72 316.92L433.77 318.15L433.92 319.2L434.13 320.09L434.38 320.83L434.63 321.43L434.86 321.91L435.04 322.27L435.15 322.53L435.71 323.19L436.32 323.68L436.94 324.02L437.55 324.24L438.1 324.37L438.58 324.45L438.95 324.51L439.18 324.57L440.08 324.49L440.84 324.28L441.47 323.98L441.99 323.62L442.41 323.26L442.73 322.93L442.98 322.67L443.15 322.53L443.49 321.98L443.78 321.39L444.02 320.76L444.22 320.08L444.38 319.36L444.49 318.59L444.56 317.78L444.58 316.92L443.15 311.41L442.6 310.75L442.01 310.26L441.39 309.92L440.8 309.7L440.25 309.57L439.77 309.49L439.4 309.43L439.18 309.37L438.27 309.45L437.51 309.66Z" id="d2Kab8F24R"></path><linearGradient id="gradienteyuQTWpAr" gradientUnits="userSpaceOnUse" x1="210.34" y1="319.93" x2="476.17" y2="322.47"><stop style="stop-color: #32cd32;stop-opacity: 1" offset="0%"></stop><stop style="stop-color: #5ce152;stop-opacity: 1" offset="100%"></stop></linearGradient><path d="M238.08 330.32C237.52 328.48 236.94 326.92 236.81 326.55C236.37 325.25 235.92 323.96 235.48 322.67C227.22 322.67 222.63 322.67 221.71 322.67C221.05 324.61 220.47 326.16 220.34 326.55C219.89 327.84 219.49 329.1 219.11 330.32C214.15 330.32 211.4 330.32 210.85 330.32C212.84 324.61 214.25 320.82 214.62 319.76C216.41 314.92 217.74 311.55 218.09 310.63C219.83 306.35 221.12 303.34 221.46 302.53C222.58 299.94 223.74 297.43 224.93 294.98C229.48 294.98 232.02 294.98 232.52 294.98C234.26 298.65 235.6 301.77 235.94 302.53C237.62 306.35 238.97 309.82 239.31 310.63C241.04 314.92 242.47 318.85 242.83 319.76C244.02 322.99 245.27 326.51 246.6 330.32C242.06 330.32 239.22 330.32 238.08 330.32ZM227.78 305.08C227.27 306.4 226.73 307.83 226.61 308.14C225.95 309.87 225.28 311.58 225.13 311.96C224.62 313.35 224.09 314.82 223.55 316.35C229.58 316.35 232.93 316.35 233.6 316.35C232.78 314.05 232.17 312.4 232.01 311.96C231.25 309.87 230.68 308.52 230.54 308.14C229.87 306.4 229.48 305.38 229.36 305.08C229.02 304.19 228.75 303.49 228.55 302.98C228.09 304.24 227.83 304.94 227.78 305.08Z" id="c6IpalirY7"></path><linearGradient id="gradientaJcbXCtFV" gradientUnits="userSpaceOnUse" x1="210.34" y1="318.14" x2="476.17" y2="321.07"><stop style="stop-color: #32cd32;stop-opacity: 1" offset="0%"></stop><stop style="stop-color: #5ce152;stop-opacity: 1" offset="100%"></stop></linearGradient><path d="M261.85 324.46C262.72 324.05 262.63 323.03 262.72 322.87C262.72 321.96 261.71 321.45 261.59 321.29C260.47 320.58 258.52 319.87 258.18 319.71C256.39 319.05 255.24 318.47 254.91 318.34C253.49 317.62 252.71 316.82 252.47 316.65C251.45 315.63 251.04 314.5 250.88 314.26C250.32 312.88 250.38 311.27 250.32 310.94C250.32 307.17 252.85 305.57 253.13 304.97C255.93 302.78 260.06 303 260.83 302.78C263.28 302.78 265.05 303.19 265.52 303.24C267.02 303.51 268.21 303.82 269.09 304.16C268.3 307.71 267.85 309.68 267.77 310.07C266.44 309.61 265.15 309.34 264.86 309.26C263.33 308.9 261.74 308.94 261.39 308.9C257.82 308.9 258.18 310.69 257.82 310.89C257.82 311.35 257.96 311.62 257.97 311.71C258.13 312.06 258.52 312.35 258.59 312.42C259.04 312.73 259.69 313.06 259.81 313.13C260.63 313.49 261.65 313.87 261.85 313.95C264.35 314.87 265.57 315.6 265.98 315.79C267.61 316.65 268.28 317.53 268.53 317.72C269.5 318.74 269.72 319.79 269.86 320.02C270.26 321.29 270.22 322.68 270.26 322.98C270.26 326.95 267.56 328.39 267.26 328.99C264.3 331.03 259.68 330.83 258.84 331.03C255.27 331.03 253.47 330.48 252.87 330.42C251.31 330.01 250.22 329.67 249.61 329.4C250.37 325.7 250.8 323.64 250.88 323.23C252.82 324 254.46 324.33 254.86 324.46C256.22 324.73 257.57 324.86 258.89 324.86C260.67 324.62 261.65 324.48 261.85 324.46Z" id="gagcd9eTY"></path><linearGradient id="gradienti4JUeWNSaC" gradientUnits="userSpaceOnUse" x1="210.34" y1="318.14" x2="476.17" y2="321.07"><stop style="stop-color: #32cd32;stop-opacity: 1" offset="0%"></stop><stop style="stop-color: #5ce152;stop-opacity: 1" offset="100%"></stop></linearGradient><path d="M275.67 296.81L283.27 295.59L283.27 303.49L292.4 303.49L292.4 309.82L283.27 309.82C283.27 315.48 283.27 318.62 283.27 319.25C283.27 321.65 284 322.7 284.09 323.08C284.95 324.51 287.16 324.36 287.5 324.51C288.73 324.51 289.75 324.32 290 324.3C290.89 324.13 291.68 323.91 292.4 323.64C293.04 327.19 293.4 329.16 293.47 329.56C292.09 330.12 290.72 330.43 290.41 330.52C288.73 330.93 286.69 330.89 286.28 330.93C283.17 330.93 281.64 330.2 281.13 330.12C279.09 329.25 278.19 328 277.86 327.77C276.64 326.24 276.3 324.47 276.13 324.1C275.82 322.67 275.67 321.09 275.67 319.36L275.67 296.81Z" id="b8jPn4xvzP"></path><linearGradient id="gradientb1g0l3lR7q" gradientUnits="userSpaceOnUse" x1="210.34" y1="318.14" x2="476.17" y2="321.07"><stop style="stop-color: #32cd32;stop-opacity: 1" offset="0%"></stop><stop style="stop-color: #5ce152;stop-opacity: 1" offset="100%"></stop></linearGradient><path d="M314.74 310.23C313.72 309.97 312.58 309.77 312.34 309.72C310.96 309.41 309.68 309.44 309.38 309.41C308.67 309.41 307.82 309.55 307.65 309.56C307 309.63 306.51 309.72 306.17 309.82L306.17 330.32L298.57 330.32C298.57 315.08 298.57 306.62 298.57 304.92C300.61 304.21 302.88 303.73 303.36 303.6C306.17 302.93 308.96 303 309.59 302.93C310.2 302.93 310.92 303.03 311.06 303.04C311.93 303.09 312.62 303.22 312.8 303.24C313.67 303.34 314.36 303.51 314.53 303.55C315.11 303.65 315.6 303.78 316.01 303.95C315.33 307.3 314.91 309.39 314.74 310.23Z" id="aSxtWi0GM"></path><linearGradient id="gradienta4MVbuiefC" gradientUnits="userSpaceOnUse" x1="210.34" y1="318.14" x2="476.17" y2="321.07"><stop style="stop-color: #32cd32;stop-opacity: 1" offset="0%"></stop><stop style="stop-color: #5ce152;stop-opacity: 1" offset="100%"></stop></linearGradient><path d="M331.97 324.97C332.65 324.93 333.2 324.88 333.61 324.81C333.61 321.35 333.61 319.43 333.61 319.05C333.15 318.95 332.37 318.87 332.23 318.85C331.31 318.74 330.71 318.75 330.55 318.74C329.47 318.74 328.71 318.88 328.51 318.9C327.59 319 327.04 319.31 326.87 319.36C326.16 319.71 325.86 320.23 325.75 320.32C325.34 320.94 325.38 321.7 325.34 321.85C325.34 323.64 326.4 324.1 326.52 324.35C327.33 324.8 328.44 325.02 329.83 325.02C331.12 324.99 331.83 324.97 331.97 324.97ZM334.83 303.55C337.07 304.31 338.04 305.52 338.4 305.74C339.78 307.17 340.14 308.86 340.34 309.21C340.71 310.57 340.9 312.08 340.9 313.75C340.9 323.23 340.9 328.5 340.9 329.56C339.27 329.91 336.81 330.29 336.36 330.37C333.45 330.88 330.03 330.83 329.32 330.88C326.72 330.88 325.05 330.47 324.58 330.42C322.49 329.96 321.32 329.09 320.96 328.94C319.43 327.87 318.85 326.46 318.61 326.19C317.8 324.51 317.88 322.47 317.8 322.06C317.8 319.71 318.62 318.48 318.71 318.08C319.68 316.45 321.01 315.74 321.26 315.48C322.84 314.51 324.52 314.24 324.88 314.1C326.92 313.64 328.69 313.69 329.12 313.64C330.6 313.64 331.46 313.78 331.72 313.8C332.5 313.86 333.13 313.97 333.61 314.1C333.61 313.67 333.61 313.44 333.61 313.39C333.61 311.45 332.55 310.59 332.43 310.28C331.26 309.1 328.76 309.22 328.35 309.1C326.41 309.1 324.91 309.38 324.53 309.41C323.27 309.58 322.18 309.84 321.26 310.18C320.68 306.5 320.36 304.46 320.29 304.06C320.96 303.85 321.76 303.69 321.93 303.65C322.95 303.39 323.9 303.28 324.12 303.24C325.29 303.04 326.32 302.96 326.57 302.93C327.45 302.83 328.34 302.78 329.22 302.78C332.59 303.24 334.46 303.49 334.83 303.55Z" id="a1NCsysITZ"></path><linearGradient id="gradientfKfXi0rtr" gradientUnits="userSpaceOnUse" x1="210.34" y1="318.14" x2="476.17" y2="321.07"><stop style="stop-color: #32cd32;stop-opacity: 1" offset="0%"></stop><stop style="stop-color: #5ce152;stop-opacity: 1" offset="100%"></stop></linearGradient><path d="M374.51 294.98L374.51 301.76L363.85 301.76L363.85 330.32L355.89 330.32L355.89 301.76L345.23 301.76L345.23 294.98L374.51 294.98Z" id="e10k7Dq3YX"></path><linearGradient id="gradienta2aYxpYmYc" gradientUnits="userSpaceOnUse" x1="210.34" y1="318.14" x2="476.17" y2="321.07"><stop style="stop-color: #32cd32;stop-opacity: 1" offset="0%"></stop><stop style="stop-color: #5ce152;stop-opacity: 1" offset="100%"></stop></linearGradient><path d="M398.48 329.4C396.54 329.96 393.98 330.32 393.48 330.42C390.42 330.93 387.7 330.88 387.05 330.93C383.64 330.93 381.91 330.11 381.34 330.01C379.1 329.1 378.13 327.72 377.77 327.46C376.45 325.78 376.07 323.88 375.88 323.49C375.51 321.96 375.32 320.27 375.32 318.44L375.32 303.49L382.92 303.49C382.92 311.91 382.92 316.58 382.92 317.52C382.92 321.19 383.79 322.29 383.89 322.82C384.86 324.46 387.15 324.29 387.51 324.46C388.33 324.46 389.07 324.41 389.25 324.4C389.86 324.34 390.4 324.27 390.88 324.2L390.88 303.49L398.48 303.49C398.48 317.31 398.48 325.95 398.48 329.4Z" id="b1spDBuqdR"></path><linearGradient id="gradientccms9iYhun" gradientUnits="userSpaceOnUse" x1="210.34" y1="318.14" x2="476.17" y2="321.07"><stop style="stop-color: #32cd32;stop-opacity: 1" offset="0%"></stop><stop style="stop-color: #5ce152;stop-opacity: 1" offset="100%"></stop></linearGradient><path d="M405.36 296.81L412.96 295.59L412.96 303.49L422.09 303.49L422.09 309.82L412.96 309.82C412.96 315.48 412.96 318.62 412.96 319.25C412.96 321.65 413.7 322.7 413.78 323.08C414.64 324.51 416.85 324.36 417.19 324.51C418.42 324.51 419.44 324.32 419.69 324.3C420.58 324.13 421.38 323.91 422.09 323.64C422.73 327.19 423.09 329.16 423.16 329.56C421.78 330.12 420.41 330.43 420.1 330.52C418.42 330.93 416.38 330.89 415.97 330.93C412.86 330.93 411.33 330.2 410.82 330.12C408.78 329.25 407.88 328 407.56 327.77C406.33 326.24 406 324.47 405.82 324.1C405.52 322.67 405.36 321.09 405.36 319.36L405.36 296.81Z" id="a1NvawNBTP"></path><linearGradient id="gradienthiewEg3dI" gradientUnits="userSpaceOnUse" x1="210.34" y1="318.14" x2="476.17" y2="321.07"><stop style="stop-color: #32cd32;stop-opacity: 1" offset="0%"></stop><stop style="stop-color: #5ce152;stop-opacity: 1" offset="100%"></stop></linearGradient><path d="M474.18 310.23C473.16 309.97 472.02 309.77 471.78 309.72C470.4 309.41 469.12 309.44 468.82 309.41C468.11 309.41 467.26 309.55 467.09 309.56C466.44 309.63 465.95 309.72 465.61 309.82L465.61 330.32L458.01 330.32C458.01 315.08 458.01 306.62 458.01 304.92C460.05 304.21 462.33 303.73 462.81 303.6C465.61 302.93 468.4 303 469.03 302.93C469.64 302.93 470.36 303.03 470.51 303.04C471.37 303.09 472.07 303.22 472.24 303.24C473.11 303.34 473.8 303.51 473.97 303.55C474.55 303.65 475.05 303.78 475.45 303.95C474.77 307.3 474.35 309.39 474.18 310.23Z" id="aSJv8CIld"></path><linearGradient id="gradientj3riLUjhtq" gradientUnits="userSpaceOnUse" x1="210.15" y1="318.14" x2="475.98" y2="321.07"><stop style="stop-color: #32cd32;stop-opacity: 1" offset="0%"></stop><stop style="stop-color: #5ce152;stop-opacity: 1" offset="100%"></stop></linearGradient><path d="M440.41 292.26C441.91 292.58 453.9 295.13 455.4 295.44C456.67 295.72 456.67 296.87 455.4 297.14C455.15 297.2 453.05 297.65 452.79 297.7C453.36 298.19 453.72 298.79 453.75 299.45C454.27 299.65 454.63 300.02 454.63 300.47C454.63 300.86 454.33 301.21 453.89 301.42C454.03 301.85 455.13 305.27 455.26 305.7C455.38 306.07 454.98 306.42 454.43 306.42C454.12 306.42 451.7 306.42 451.4 306.42C450.85 306.42 450.44 306.07 450.57 305.7C450.7 305.27 451.8 301.85 451.94 301.42C451.5 301.21 451.2 300.86 451.2 300.47C451.2 300.03 451.54 299.67 452.03 299.46C452 298.9 451.58 298.41 450.92 298.1C449.87 298.33 441.46 300.11 440.41 300.33C439.92 300.44 438.98 300.57 437.89 300.33C436.39 300.02 424.39 297.47 422.89 297.14C421.63 296.87 421.63 295.72 422.89 295.44C425.89 294.81 436.39 292.58 437.89 292.26C438.71 292.08 439.59 292.08 440.41 292.26ZM448.71 299.82C449.17 302.35 449.42 303.76 449.48 304.04C449.48 305.35 444.86 306.42 439.15 306.42C433.45 306.42 428.83 305.35 428.83 304.04C428.88 303.76 429.13 302.35 429.59 299.82C430.37 299.98 436.61 301.3 437.39 301.47C439.28 301.57 440.46 301.57 440.92 301.47C441.43 301.36 444.03 300.81 448.71 299.82Z" id="j2GS73XZ8"></path></defs><g><g><g><use xlink:href="#d2Kab8F24R" opacity="1" fill="url(#gradienteyuQTWpAr)"></use><g><use xlink:href="#d2Kab8F24R" opacity="1" fill-opacity="0" stroke="#000000" stroke-width="1" stroke-opacity="0"></use></g></g><g><use xlink:href="#c6IpalirY7" opacity="1" fill="url(#gradientaJcbXCtFV)"></use><g><use xlink:href="#c6IpalirY7" opacity="1" fill-opacity="0" stroke="#000000" stroke-width="1" stroke-opacity="0"></use></g></g><g><use xlink:href="#gagcd9eTY" opacity="1" fill="url(#gradienti4JUeWNSaC)"></use><g><use xlink:href="#gagcd9eTY" opacity="1" fill-opacity="0" stroke="#000000" stroke-width="1" stroke-opacity="0"></use></g></g><g><use xlink:href="#b8jPn4xvzP" opacity="1" fill="url(#gradientb1g0l3lR7q)"></use><g><use xlink:href="#b8jPn4xvzP" opacity="1" fill-opacity="0" stroke="#000000" stroke-width="1" stroke-opacity="0"></use></g></g><g><use xlink:href="#aSxtWi0GM" opacity="1" fill="url(#gradienta4MVbuiefC)"></use><g><use xlink:href="#aSxtWi0GM" opacity="1" fill-opacity="0" stroke="#000000" stroke-width="1" stroke-opacity="0"></use></g></g><g><use xlink:href="#a1NCsysITZ" opacity="1" fill="url(#gradientfKfXi0rtr)"></use><g><use xlink:href="#a1NCsysITZ" opacity="1" fill-opacity="0" stroke="#000000" stroke-width="1" stroke-opacity="0"></use></g></g><g><use xlink:href="#e10k7Dq3YX" opacity="1" fill="url(#gradienta2aYxpYmYc)"></use><g><use xlink:href="#e10k7Dq3YX" opacity="1" fill-opacity="0" stroke="#000000" stroke-width="1" stroke-opacity="0"></use></g></g><g><use xlink:href="#b1spDBuqdR" opacity="1" fill="url(#gradientccms9iYhun)"></use><g><use xlink:href="#b1spDBuqdR" opacity="1" fill-opacity="0" stroke="#000000" stroke-width="1" stroke-opacity="0"></use></g></g><g><use xlink:href="#a1NvawNBTP" opacity="1" fill="url(#gradienthiewEg3dI)"></use><g><use xlink:href="#a1NvawNBTP" opacity="1" fill-opacity="0" stroke="#000000" stroke-width="1" stroke-opacity="0"></use></g></g><g><use xlink:href="#aSJv8CIld" opacity="1" fill="url(#gradientj3riLUjhtq)"></use><g><use xlink:href="#aSJv8CIld" opacity="1" fill-opacity="0" stroke="#000000" stroke-width="1" stroke-opacity="0"></use></g></g><g><use xlink:href="#j2GS73XZ8" opacity="1" fill="#55de4d" fill-opacity="1"></use></g></g></g></svg>